<svg width="19" height="19" viewBox="0 0 19 19" fill="none" xmlns="http://www.w3.org/2000/svg">
<g clip-path="url(#clip0_108_1610)">
<path d="M18.7692 9.38461C18.7692 4.20163 14.5676 0 9.38461 0C4.20163 0 0 4.20163 0 9.38461C0 14.0687 3.4318 17.9512 7.91827 18.6552V12.0974H5.53546V9.38461H7.91827V7.31707C7.91827 4.96505 9.31936 3.66587 11.463 3.66587C12.4894 3.66587 13.5637 3.84916 13.5637 3.84916V6.15865H12.3804C11.2146 6.15865 10.851 6.88211 10.851 7.625V9.38461H13.4537L13.0376 12.0974H10.851V18.6552C15.3374 17.9512 18.7692 14.0687 18.7692 9.38461Z" fill="#99A2A5"/>
</g>
<defs>
<clipPath id="clip0_108_1610">
<rect width="18.7692" height="18.7692" fill="white"/>
</clipPath>
</defs>
</svg>
