<svg width="20" height="19" viewBox="0 0 20 19" fill="none" xmlns="http://www.w3.org/2000/svg">
<g clip-path="url(#clip0_108_1612)">
<path d="M9.87192 1.68996C12.3794 1.68996 12.6763 1.70096 13.6624 1.74495C14.5789 1.78528 15.0738 1.93924 15.4037 2.06755C15.8399 2.23618 16.1552 2.44147 16.4815 2.76773C16.8114 3.09766 17.013 3.40926 17.1817 3.84549C17.31 4.17542 17.4639 4.67398 17.5043 5.58678C17.5482 6.57656 17.5592 6.8735 17.5592 9.37728C17.5592 11.8847 17.5482 12.1817 17.5043 13.1678C17.4639 14.0843 17.31 14.5791 17.1817 14.9091C17.013 15.3453 16.8077 15.6606 16.4815 15.9868C16.1515 16.3168 15.8399 16.5184 15.4037 16.687C15.0738 16.8153 14.5752 16.9693 13.6624 17.0096C12.6726 17.0536 12.3757 17.0646 9.87192 17.0646C7.36447 17.0646 7.06753 17.0536 6.08142 17.0096C5.16495 16.9693 4.67006 16.8153 4.34013 16.687C3.90389 16.5184 3.58863 16.3131 3.26236 15.9868C2.93244 15.6569 2.73081 15.3453 2.56218 14.9091C2.43388 14.5791 2.27991 14.0806 2.23959 13.1678C2.1956 12.178 2.1846 11.8811 2.1846 9.37728C2.1846 6.86983 2.1956 6.5729 2.23959 5.58678C2.27991 4.67031 2.43388 4.17542 2.56218 3.84549C2.73081 3.40926 2.9361 3.09399 3.26236 2.76773C3.59229 2.4378 3.90389 2.23618 4.34013 2.06755C4.67006 1.93924 5.16862 1.78528 6.08142 1.74495C7.06753 1.70096 7.36447 1.68996 9.87192 1.68996ZM9.87192 0C7.32414 0 7.00521 0.0109976 6.00443 0.054988C5.00732 0.0989784 4.3218 0.260276 3.72793 0.491226C3.1084 0.733173 2.58418 1.0521 2.06363 1.57632C1.53941 2.09687 1.22048 2.62109 0.978531 3.23696C0.747581 3.8345 0.586283 4.51635 0.542293 5.51346C0.498302 6.51791 0.487305 6.83684 0.487305 9.38461C0.487305 11.9324 0.498302 12.2513 0.542293 13.2521C0.586283 14.2492 0.747581 14.9347 0.978531 15.5286C1.22048 16.1481 1.53941 16.6724 2.06363 17.1929C2.58418 17.7135 3.1084 18.0361 3.72426 18.2743C4.3218 18.5053 5.00365 18.6666 6.00077 18.7106C7.00155 18.7546 7.32048 18.7656 9.86825 18.7656C12.416 18.7656 12.735 18.7546 13.7357 18.7106C14.7329 18.6666 15.4184 18.5053 16.0122 18.2743C16.6281 18.0361 17.1523 17.7135 17.6729 17.1929C18.1934 16.6724 18.516 16.1481 18.7543 15.5323C18.9853 14.9347 19.1466 14.2529 19.1905 13.2558C19.2345 12.255 19.2455 11.9361 19.2455 9.38828C19.2455 6.84051 19.2345 6.52157 19.1905 5.52079C19.1466 4.52368 18.9853 3.83816 18.7543 3.24429C18.5234 2.62109 18.2044 2.09687 17.6802 1.57632C17.1597 1.05577 16.6354 0.733173 16.0196 0.494892C15.422 0.263942 14.7402 0.102644 13.7431 0.0586538C12.7386 0.0109976 12.4197 0 9.87192 0Z" fill="#99A2A5"/>
<path d="M9.87188 4.564C7.21046 4.564 5.05127 6.72319 5.05127 9.38461C5.05127 12.046 7.21046 14.2052 9.87188 14.2052C12.5333 14.2052 14.6925 12.046 14.6925 9.38461C14.6925 6.72319 12.5333 4.564 9.87188 4.564ZM9.87188 12.5116C8.14526 12.5116 6.7449 11.1112 6.7449 9.38461C6.7449 7.65799 8.14526 6.25762 9.87188 6.25762C11.5985 6.25762 12.9989 7.65799 12.9989 9.38461C12.9989 11.1112 11.5985 12.5116 9.87188 12.5116Z" fill="#99A2A5"/>
<path d="M16.0087 4.37335C16.0087 4.99654 15.5028 5.49877 14.8832 5.49877C14.26 5.49877 13.7578 4.99288 13.7578 4.37335C13.7578 3.75015 14.2637 3.24792 14.8832 3.24792C15.5028 3.24792 16.0087 3.75381 16.0087 4.37335Z" fill="#99A2A5"/>
</g>
<defs>
<clipPath id="clip0_108_1612">
<rect width="18.7692" height="18.7692" fill="white" transform="translate(0.487305)"/>
</clipPath>
</defs>
</svg>
