<svg width="20" height="19" viewBox="0 0 20 19" fill="none" xmlns="http://www.w3.org/2000/svg">
<g clip-path="url(#clip0_108_1611)">
<path d="M6.64826 17.0097C13.7292 17.0097 17.6033 11.1417 17.6033 6.05458C17.6033 5.88962 17.5997 5.72099 17.5923 5.55603C18.346 5.01101 18.9963 4.33594 19.5129 3.56253C18.811 3.8748 18.0658 4.07875 17.3027 4.1674C18.1062 3.68579 18.7078 2.9292 18.996 2.03789C18.2401 2.48585 17.4135 2.80184 16.5516 2.97232C15.9708 2.35525 15.203 1.94667 14.3667 1.80976C13.5305 1.67285 12.6724 1.81523 11.9252 2.2149C11.178 2.61456 10.5833 3.24924 10.2329 4.02082C9.88262 4.7924 9.79623 5.65789 9.98713 6.48349C8.45663 6.40669 6.95935 6.0091 5.59236 5.31651C4.22537 4.62392 3.01918 3.65179 2.052 2.46314C1.56043 3.31067 1.41 4.31357 1.6313 5.26802C1.8526 6.22247 2.42902 7.05685 3.24341 7.60158C2.63202 7.58217 2.03402 7.41756 1.49882 7.12135V7.16901C1.49827 8.05842 1.80575 8.92059 2.369 9.60894C2.93224 10.2973 3.71648 10.7693 4.58841 10.9448C4.02205 11.0998 3.42764 11.1224 2.85116 11.0108C3.0972 11.7757 3.57591 12.4447 4.22047 12.9245C4.86504 13.4042 5.6433 13.6708 6.44664 13.6869C5.0828 14.7582 3.39807 15.3393 1.66378 15.3366C1.35622 15.3361 1.04896 15.3172 0.743652 15.2801C2.5055 16.4104 4.555 17.0107 6.64826 17.0097Z" fill="#99A2A5"/>
</g>
<defs>
<clipPath id="clip0_108_1611">
<rect width="18.7692" height="18.7692" fill="white" transform="translate(0.743652)"/>
</clipPath>
</defs>
</svg>
