<svg width="19" height="19" viewBox="0 0 19 19" fill="none" xmlns="http://www.w3.org/2000/svg">
<g clip-path="url(#clip0_108_1613)">
<path d="M18.813 5.63082C18.813 5.63082 18.6297 4.33677 18.0651 3.76856C17.3503 3.02072 16.5511 3.01706 16.1846 2.97307C13.5598 2.78244 9.61899 2.78244 9.61899 2.78244H9.61166C9.61166 2.78244 5.67086 2.78244 3.0461 2.97307C2.67951 3.01706 1.88035 3.02072 1.16551 3.76856C0.600965 4.33677 0.421338 5.63082 0.421338 5.63082C0.421338 5.63082 0.230713 7.15215 0.230713 8.66982V10.0922C0.230713 11.6098 0.417672 13.1312 0.417672 13.1312C0.417672 13.1312 0.600965 14.4252 1.16184 14.9934C1.87669 15.7413 2.81515 15.7156 3.23306 15.7963C4.73606 15.9392 9.61533 15.9832 9.61533 15.9832C9.61533 15.9832 13.5598 15.9759 16.1846 15.7889C16.5511 15.7449 17.3503 15.7413 18.0651 14.9934C18.6297 14.4252 18.813 13.1312 18.813 13.1312C18.813 13.1312 18.9999 11.6135 18.9999 10.0922V8.66982C18.9999 7.15215 18.813 5.63082 18.813 5.63082ZM7.67609 11.8188V6.54362L12.746 9.19037L7.67609 11.8188Z" fill="#99A2A5"/>
</g>
<defs>
<clipPath id="clip0_108_1613">
<rect width="18.7692" height="18.7692" fill="white" transform="translate(0.230713)"/>
</clipPath>
</defs>
</svg>
